# xmcd
#
# Track frame offsets: 
#        150
#        14095
#        29237
#        39127
#        52700
#        66860
#        81375
#        98495
#        112620
#        129585
#
# Disc length: 1969 seconds
#
# Revision: 0
# Processed by: cddbd v1.5.2PL0 Copyright (c) Steve Scherf et al.
# Submitted via: ExactAudioCopy v0.95b4
#
DISCID=7707af0a
DTITLE=O.V. Wright - A Nickel And A Nail
DYEAR=1971
DGENRE=Soul
TTITLE0=Don't Let My Baby Ride
TTITLE1=Born All Over
TTITLE2=Ace Of Spades
TTITLE3=Eight Men, Four Women
TTITLE4=He Made Woman For Man
TTITLE5=I Can't Take It
TTITLE6=Afflicted
TTITLE7=When You Took Your Love From Me
TTITLE8=A Nickel And A Nail
TTITLE9=Don't take It Away
EXTD=
EXTT0=
EXTT1=
EXTT2=
EXTT3=
EXTT4=
EXTT5=
EXTT6=
EXTT7=
EXTT8=
EXTT9=
PLAYORDER=
